<svg xmlns="http://www.w3.org/2000/svg" xmlns:xlink="http://www.w3.org/1999/xlink" width="1080" zoomAndPan="magnify" viewBox="0 0 810 809.999993" height="1080" preserveAspectRatio="xMidYMid meet" version="1.0"><defs><g/></defs><g fill="#000000" fill-opacity="1"><g transform="translate(215.897892, 502.207395)"><g><path d="M 52.140625 -118.078125 L 55.734375 -118.078125 C 59.535156 -118.078125 62.082031 -118.828125 63.375 -120.328125 C 64.675781 -121.828125 65.328125 -125.972656 65.328125 -132.765625 L 65.328125 -196.296875 C 65.328125 -203.484375 64.675781 -207.828125 63.375 -209.328125 C 62.082031 -210.828125 59.335938 -211.578125 55.140625 -211.578125 L 52.140625 -211.578125 Z M 61.4375 -243.34375 C 80.21875 -243.34375 92.503906 -240.445312 98.296875 -234.65625 C 103.890625 -229.0625 106.6875 -215.472656 106.6875 -193.890625 L 106.6875 -135.765625 C 106.6875 -113.984375 103.789062 -100.195312 98 -94.40625 C 92.40625 -88.8125 80.316406 -86.015625 61.734375 -86.015625 L 52.140625 -86.015625 L 52.140625 0 L 10.484375 0 L 10.484375 -243.34375 Z M 61.4375 -243.34375 "/></g></g></g><g fill="#000000" fill-opacity="1"><g transform="translate(329.777078, 502.207395)"><g><path d="M 59.03125 -243.34375 L 74.328125 -126.765625 L 76.421875 -126.765625 L 91.703125 -243.34375 L 140.25 -243.34375 L 140.25 0 L 103.09375 0 L 104.59375 -143.84375 L 102.1875 -143.84375 L 86.3125 0 L 64.4375 0 L 48.546875 -143.84375 L 46.15625 -143.84375 L 47.65625 0 L 10.484375 0 L 10.484375 -243.34375 Z M 59.03125 -243.34375 "/></g></g></g><g fill="#000000" fill-opacity="1"><g transform="translate(480.217499, 502.207395)"><g><path d="M 104.59375 -159.4375 L 63.234375 -159.4375 L 63.234375 -202.28125 C 63.234375 -209.082031 60.9375 -212.484375 56.34375 -212.484375 C 54.144531 -212.484375 52.59375 -211.734375 51.6875 -210.234375 C 50.789062 -208.734375 50.34375 -206.082031 50.34375 -202.28125 L 50.34375 -164.53125 C 50.34375 -160.132812 50.992188 -156.984375 52.296875 -155.078125 C 53.597656 -153.179688 56.046875 -151.132812 59.640625 -148.9375 L 85.109375 -134.265625 C 92.097656 -130.265625 97.09375 -125.566406 100.09375 -120.171875 C 103.09375 -114.773438 104.59375 -107.179688 104.59375 -97.390625 L 104.59375 -46.75 C 104.59375 -24.769531 101.796875 -11.285156 96.203125 -6.296875 C 90.410156 -1.097656 77.125 1.5 56.34375 1.5 C 35.757812 1.5 22.671875 -1.195312 17.078125 -6.59375 C 11.285156 -12.382812 8.390625 -25.769531 8.390625 -46.75 L 8.390625 -100.390625 L 50.34375 -100.390625 L 50.34375 -41.0625 C 50.34375 -34.0625 52.640625 -30.5625 57.234375 -30.5625 C 61.234375 -30.5625 63.234375 -34.0625 63.234375 -41.0625 L 63.234375 -92.609375 C 63.234375 -97.003906 62.632812 -100.097656 61.4375 -101.890625 C 60.238281 -103.691406 57.738281 -105.691406 53.9375 -107.890625 L 27.265625 -123.46875 C 20.472656 -127.46875 15.628906 -132.265625 12.734375 -137.859375 C 9.835938 -143.453125 8.390625 -151.34375 8.390625 -161.53125 L 8.390625 -196.296875 C 8.390625 -217.078125 11.285156 -230.363281 17.078125 -236.15625 C 22.867188 -241.945312 36.054688 -244.84375 56.640625 -244.84375 C 77.015625 -244.84375 90.101562 -242.144531 95.90625 -236.75 C 101.695312 -231.351562 104.59375 -217.867188 104.59375 -196.296875 Z M 104.59375 -159.4375 "/></g></g></g><g fill="#000000" fill-opacity="1"><g transform="translate(48.44459, 589.590561)"><g><path d="M 34.59375 -16.78125 C 34.59375 -11.238281 33.21875 -6.976562 30.46875 -4 C 27.726562 -1.03125 23.789062 0.453125 18.65625 0.453125 C 13.53125 0.453125 9.59375 -1.03125 6.84375 -4 C 4.09375 -6.976562 2.71875 -11.253906 2.71875 -16.828125 C 2.71875 -22.398438 4.09375 -26.65625 6.84375 -29.59375 C 9.601562 -32.53125 13.554688 -34 18.703125 -34 C 23.847656 -34 27.78125 -32.515625 30.5 -29.546875 C 33.226562 -26.585938 34.59375 -22.332031 34.59375 -16.78125 Z M 10.171875 -16.78125 C 10.171875 -13.039062 10.878906 -10.222656 12.296875 -8.328125 C 13.710938 -6.441406 15.832031 -5.5 18.65625 -5.5 C 24.320312 -5.5 27.15625 -9.257812 27.15625 -16.78125 C 27.15625 -24.320312 24.335938 -28.09375 18.703125 -28.09375 C 15.878906 -28.09375 13.75 -27.140625 12.3125 -25.234375 C 10.882812 -23.335938 10.171875 -20.519531 10.171875 -16.78125 Z M 10.171875 -16.78125 "/></g></g></g><g fill="#000000" fill-opacity="1"><g transform="translate(85.757368, 589.590561)"><g/></g></g><g fill="#000000" fill-opacity="1"><g transform="translate(97.935526, 589.590561)"><g><path d="M 21.515625 -7.59375 C 21.515625 -4.96875 20.601562 -2.96875 18.78125 -1.59375 C 16.957031 -0.226562 14.226562 0.453125 10.59375 0.453125 C 8.738281 0.453125 7.15625 0.328125 5.84375 0.078125 C 4.53125 -0.171875 3.300781 -0.539062 2.15625 -1.03125 L 2.15625 -6.796875 C 3.445312 -6.191406 4.90625 -5.679688 6.53125 -5.265625 C 8.15625 -4.847656 9.585938 -4.640625 10.828125 -4.640625 C 13.359375 -4.640625 14.625 -5.375 14.625 -6.84375 C 14.625 -7.394531 14.457031 -7.84375 14.125 -8.1875 C 13.789062 -8.53125 13.210938 -8.914062 12.390625 -9.34375 C 11.566406 -9.78125 10.46875 -10.289062 9.09375 -10.875 C 7.125 -11.695312 5.675781 -12.457031 4.75 -13.15625 C 3.820312 -13.863281 3.148438 -14.671875 2.734375 -15.578125 C 2.316406 -16.484375 2.109375 -17.601562 2.109375 -18.9375 C 2.109375 -21.207031 2.988281 -22.960938 4.75 -24.203125 C 6.507812 -25.453125 9.007812 -26.078125 12.25 -26.078125 C 15.332031 -26.078125 18.332031 -25.40625 21.25 -24.0625 L 19.140625 -19.03125 C 17.859375 -19.570312 16.660156 -20.019531 15.546875 -20.375 C 14.429688 -20.726562 13.296875 -20.90625 12.140625 -20.90625 C 10.078125 -20.90625 9.046875 -20.347656 9.046875 -19.234375 C 9.046875 -18.609375 9.375 -18.066406 10.03125 -17.609375 C 10.695312 -17.148438 12.15625 -16.46875 14.40625 -15.5625 C 16.40625 -14.757812 17.867188 -14.003906 18.796875 -13.296875 C 19.722656 -12.597656 20.40625 -11.789062 20.84375 -10.875 C 21.289062 -9.957031 21.515625 -8.863281 21.515625 -7.59375 Z M 21.515625 -7.59375 "/></g></g></g><g fill="#000000" fill-opacity="1"><g transform="translate(121.238844, 589.590561)"><g><path d="M 14.265625 -21.109375 C 12.785156 -21.109375 11.625 -20.640625 10.78125 -19.703125 C 9.945312 -18.765625 9.46875 -17.429688 9.34375 -15.703125 L 19.140625 -15.703125 C 19.109375 -17.429688 18.65625 -18.765625 17.78125 -19.703125 C 16.914062 -20.640625 15.742188 -21.109375 14.265625 -21.109375 Z M 15.25 0.453125 C 11.125 0.453125 7.898438 -0.679688 5.578125 -2.953125 C 3.265625 -5.222656 2.109375 -8.441406 2.109375 -12.609375 C 2.109375 -16.898438 3.179688 -20.21875 5.328125 -22.5625 C 7.472656 -24.90625 10.4375 -26.078125 14.21875 -26.078125 C 17.832031 -26.078125 20.644531 -25.046875 22.65625 -22.984375 C 24.675781 -20.921875 25.6875 -18.078125 25.6875 -14.453125 L 25.6875 -11.0625 L 9.1875 -11.0625 C 9.257812 -9.070312 9.84375 -7.519531 10.9375 -6.40625 C 12.039062 -5.289062 13.582031 -4.734375 15.5625 -4.734375 C 17.101562 -4.734375 18.5625 -4.894531 19.9375 -5.21875 C 21.3125 -5.539062 22.75 -6.050781 24.25 -6.75 L 24.25 -1.34375 C 23.03125 -0.738281 21.722656 -0.289062 20.328125 0 C 18.941406 0.300781 17.25 0.453125 15.25 0.453125 Z M 15.25 0.453125 "/></g></g></g><g fill="#000000" fill-opacity="1"><g transform="translate(148.937286, 589.590561)"><g><path d="M 21.796875 0 L 20.859375 -3.28125 L 20.484375 -3.28125 C 19.742188 -2.082031 18.6875 -1.160156 17.3125 -0.515625 C 15.9375 0.128906 14.367188 0.453125 12.609375 0.453125 C 9.609375 0.453125 7.34375 -0.347656 5.8125 -1.953125 C 4.289062 -3.566406 3.53125 -5.882812 3.53125 -8.90625 L 3.53125 -25.59375 L 10.515625 -25.59375 L 10.515625 -10.640625 C 10.515625 -8.796875 10.84375 -7.410156 11.5 -6.484375 C 12.15625 -5.566406 13.195312 -5.109375 14.625 -5.109375 C 16.582031 -5.109375 17.992188 -5.757812 18.859375 -7.0625 C 19.734375 -8.363281 20.171875 -10.523438 20.171875 -13.546875 L 20.171875 -25.59375 L 27.15625 -25.59375 L 27.15625 0 Z M 21.796875 0 "/></g></g></g><g fill="#000000" fill-opacity="1"><g transform="translate(179.748942, 589.590561)"><g/></g></g><g fill="#000000" fill-opacity="1"><g transform="translate(191.9271, 589.590561)"><g><path d="M 25.9375 -25.59375 L 25.9375 -22.046875 L 21.9375 -21.015625 C 22.664062 -19.867188 23.03125 -18.585938 23.03125 -17.171875 C 23.03125 -14.421875 22.070312 -12.28125 20.15625 -10.75 C 18.238281 -9.21875 15.582031 -8.453125 12.1875 -8.453125 L 10.921875 -8.515625 L 9.890625 -8.625 C 9.171875 -8.082031 8.8125 -7.472656 8.8125 -6.796875 C 8.8125 -5.785156 10.09375 -5.28125 12.65625 -5.28125 L 17.015625 -5.28125 C 19.816406 -5.28125 21.953125 -4.675781 23.421875 -3.46875 C 24.898438 -2.269531 25.640625 -0.503906 25.640625 1.828125 C 25.640625 4.816406 24.390625 7.132812 21.890625 8.78125 C 19.398438 10.4375 15.820312 11.265625 11.15625 11.265625 C 7.582031 11.265625 4.851562 10.640625 2.96875 9.390625 C 1.082031 8.148438 0.140625 6.410156 0.140625 4.171875 C 0.140625 2.628906 0.617188 1.335938 1.578125 0.296875 C 2.535156 -0.742188 3.945312 -1.484375 5.8125 -1.921875 C 5.09375 -2.222656 4.46875 -2.722656 3.9375 -3.421875 C 3.40625 -4.117188 3.140625 -4.851562 3.140625 -5.625 C 3.140625 -6.601562 3.421875 -7.414062 3.984375 -8.0625 C 4.546875 -8.71875 5.363281 -9.359375 6.4375 -9.984375 C 5.09375 -10.566406 4.023438 -11.5 3.234375 -12.78125 C 2.453125 -14.0625 2.0625 -15.570312 2.0625 -17.3125 C 2.0625 -20.101562 2.96875 -22.257812 4.78125 -23.78125 C 6.601562 -25.3125 9.195312 -26.078125 12.5625 -26.078125 C 13.28125 -26.078125 14.128906 -26.007812 15.109375 -25.875 C 16.097656 -25.75 16.734375 -25.65625 17.015625 -25.59375 Z M 6.1875 3.625 C 6.1875 4.582031 6.644531 5.332031 7.5625 5.875 C 8.488281 6.425781 9.785156 6.703125 11.453125 6.703125 C 13.953125 6.703125 15.910156 6.359375 17.328125 5.671875 C 18.753906 4.984375 19.46875 4.046875 19.46875 2.859375 C 19.46875 1.898438 19.046875 1.238281 18.203125 0.875 C 17.359375 0.507812 16.0625 0.328125 14.3125 0.328125 L 10.6875 0.328125 C 9.40625 0.328125 8.332031 0.625 7.46875 1.21875 C 6.613281 1.820312 6.1875 2.625 6.1875 3.625 Z M 8.71875 -17.21875 C 8.71875 -15.832031 9.035156 -14.734375 9.671875 -13.921875 C 10.304688 -13.109375 11.269531 -12.703125 12.5625 -12.703125 C 13.875 -12.703125 14.835938 -13.109375 15.453125 -13.921875 C 16.066406 -14.734375 16.375 -15.832031 16.375 -17.21875 C 16.375 -20.300781 15.101562 -21.84375 12.5625 -21.84375 C 10 -21.84375 8.71875 -20.300781 8.71875 -17.21875 Z M 8.71875 -17.21875 "/></g></g></g><g fill="#000000" fill-opacity="1"><g transform="translate(218.412304, 589.590561)"><g><path d="M 14.265625 -21.109375 C 12.785156 -21.109375 11.625 -20.640625 10.78125 -19.703125 C 9.945312 -18.765625 9.46875 -17.429688 9.34375 -15.703125 L 19.140625 -15.703125 C 19.109375 -17.429688 18.65625 -18.765625 17.78125 -19.703125 C 16.914062 -20.640625 15.742188 -21.109375 14.265625 -21.109375 Z M 15.25 0.453125 C 11.125 0.453125 7.898438 -0.679688 5.578125 -2.953125 C 3.265625 -5.222656 2.109375 -8.441406 2.109375 -12.609375 C 2.109375 -16.898438 3.179688 -20.21875 5.328125 -22.5625 C 7.472656 -24.90625 10.4375 -26.078125 14.21875 -26.078125 C 17.832031 -26.078125 20.644531 -25.046875 22.65625 -22.984375 C 24.675781 -20.921875 25.6875 -18.078125 25.6875 -14.453125 L 25.6875 -11.0625 L 9.1875 -11.0625 C 9.257812 -9.070312 9.84375 -7.519531 10.9375 -6.40625 C 12.039062 -5.289062 13.582031 -4.734375 15.5625 -4.734375 C 17.101562 -4.734375 18.5625 -4.894531 19.9375 -5.21875 C 21.3125 -5.539062 22.75 -6.050781 24.25 -6.75 L 24.25 -1.34375 C 23.03125 -0.738281 21.722656 -0.289062 20.328125 0 C 18.941406 0.300781 17.25 0.453125 15.25 0.453125 Z M 15.25 0.453125 "/></g></g></g><g fill="#000000" fill-opacity="1"><g transform="translate(246.110746, 589.590561)"><g><path d="M 17.953125 -26.078125 C 18.898438 -26.078125 19.6875 -26.007812 20.3125 -25.875 L 19.78125 -19.328125 C 19.21875 -19.472656 18.53125 -19.546875 17.71875 -19.546875 C 15.488281 -19.546875 13.75 -18.972656 12.5 -17.828125 C 11.257812 -16.691406 10.640625 -15.09375 10.640625 -13.03125 L 10.640625 0 L 3.65625 0 L 3.65625 -25.59375 L 8.953125 -25.59375 L 9.984375 -21.296875 L 10.328125 -21.296875 C 11.117188 -22.734375 12.1875 -23.890625 13.53125 -24.765625 C 14.882812 -25.640625 16.359375 -26.078125 17.953125 -26.078125 Z M 17.953125 -26.078125 "/></g></g></g><g fill="#000000" fill-opacity="1"><g transform="translate(267.39962, 589.590561)"><g><path d="M 14.265625 -21.109375 C 12.785156 -21.109375 11.625 -20.640625 10.78125 -19.703125 C 9.945312 -18.765625 9.46875 -17.429688 9.34375 -15.703125 L 19.140625 -15.703125 C 19.109375 -17.429688 18.65625 -18.765625 17.78125 -19.703125 C 16.914062 -20.640625 15.742188 -21.109375 14.265625 -21.109375 Z M 15.25 0.453125 C 11.125 0.453125 7.898438 -0.679688 5.578125 -2.953125 C 3.265625 -5.222656 2.109375 -8.441406 2.109375 -12.609375 C 2.109375 -16.898438 3.179688 -20.21875 5.328125 -22.5625 C 7.472656 -24.90625 10.4375 -26.078125 14.21875 -26.078125 C 17.832031 -26.078125 20.644531 -25.046875 22.65625 -22.984375 C 24.675781 -20.921875 25.6875 -18.078125 25.6875 -14.453125 L 25.6875 -11.0625 L 9.1875 -11.0625 C 9.257812 -9.070312 9.84375 -7.519531 10.9375 -6.40625 C 12.039062 -5.289062 13.582031 -4.734375 15.5625 -4.734375 C 17.101562 -4.734375 18.5625 -4.894531 19.9375 -5.21875 C 21.3125 -5.539062 22.75 -6.050781 24.25 -6.75 L 24.25 -1.34375 C 23.03125 -0.738281 21.722656 -0.289062 20.328125 0 C 18.941406 0.300781 17.25 0.453125 15.25 0.453125 Z M 15.25 0.453125 "/></g></g></g><g fill="#000000" fill-opacity="1"><g transform="translate(295.098062, 589.590561)"><g><path d="M 27.296875 0 L 20.3125 0 L 20.3125 -14.953125 C 20.3125 -16.796875 19.984375 -18.175781 19.328125 -19.09375 C 18.671875 -20.019531 17.625 -20.484375 16.1875 -20.484375 C 14.226562 -20.484375 12.8125 -19.832031 11.9375 -18.53125 C 11.070312 -17.226562 10.640625 -15.066406 10.640625 -12.046875 L 10.640625 0 L 3.65625 0 L 3.65625 -25.59375 L 9 -25.59375 L 9.9375 -22.328125 L 10.328125 -22.328125 C 11.109375 -23.554688 12.179688 -24.488281 13.546875 -25.125 C 14.910156 -25.757812 16.460938 -26.078125 18.203125 -26.078125 C 21.179688 -26.078125 23.441406 -25.269531 24.984375 -23.65625 C 26.523438 -22.050781 27.296875 -19.726562 27.296875 -16.6875 Z M 27.296875 0 "/></g></g></g><g fill="#000000" fill-opacity="1"><g transform="translate(325.909718, 589.590561)"><g><path d="M 14.0625 0.453125 C 6.09375 0.453125 2.109375 -3.914062 2.109375 -12.65625 C 2.109375 -17.007812 3.191406 -20.332031 5.359375 -22.625 C 7.523438 -24.925781 10.628906 -26.078125 14.671875 -26.078125 C 17.640625 -26.078125 20.296875 -25.5 22.640625 -24.34375 L 20.578125 -18.9375 C 19.484375 -19.375 18.460938 -19.734375 17.515625 -20.015625 C 16.566406 -20.304688 15.617188 -20.453125 14.671875 -20.453125 C 11.046875 -20.453125 9.234375 -17.867188 9.234375 -12.703125 C 9.234375 -7.703125 11.046875 -5.203125 14.671875 -5.203125 C 16.015625 -5.203125 17.257812 -5.378906 18.40625 -5.734375 C 19.550781 -6.097656 20.695312 -6.660156 21.84375 -7.421875 L 21.84375 -1.4375 C 20.707031 -0.71875 19.5625 -0.222656 18.40625 0.046875 C 17.257812 0.316406 15.8125 0.453125 14.0625 0.453125 Z M 14.0625 0.453125 "/></g></g></g><g fill="#000000" fill-opacity="1"><g transform="translate(350.014217, 589.590561)"><g><path d="M 3.359375 -32.21875 C 3.359375 -34.488281 4.628906 -35.625 7.171875 -35.625 C 9.703125 -35.625 10.96875 -34.488281 10.96875 -32.21875 C 10.96875 -31.132812 10.648438 -30.289062 10.015625 -29.6875 C 9.378906 -29.082031 8.429688 -28.78125 7.171875 -28.78125 C 4.628906 -28.78125 3.359375 -29.925781 3.359375 -32.21875 Z M 10.640625 0 L 3.65625 0 L 3.65625 -25.59375 L 10.640625 -25.59375 Z M 10.640625 0 "/></g></g></g><g fill="#000000" fill-opacity="1"><g transform="translate(364.321252, 589.590561)"><g><path d="M 19.921875 0 L 18.5625 -3.484375 L 18.390625 -3.484375 C 17.210938 -2.003906 16 -0.976562 14.75 -0.40625 C 13.507812 0.164062 11.890625 0.453125 9.890625 0.453125 C 7.429688 0.453125 5.492188 -0.242188 4.078125 -1.640625 C 2.671875 -3.046875 1.96875 -5.046875 1.96875 -7.640625 C 1.96875 -10.359375 2.914062 -12.363281 4.8125 -13.65625 C 6.71875 -14.945312 9.585938 -15.660156 13.421875 -15.796875 L 17.859375 -15.9375 L 17.859375 -17.0625 C 17.859375 -19.65625 16.53125 -20.953125 13.875 -20.953125 C 11.832031 -20.953125 9.425781 -20.332031 6.65625 -19.09375 L 4.34375 -23.8125 C 7.289062 -25.351562 10.5625 -26.125 14.15625 -26.125 C 17.582031 -26.125 20.210938 -25.375 22.046875 -23.875 C 23.878906 -22.382812 24.796875 -20.113281 24.796875 -17.0625 L 24.796875 0 Z M 17.859375 -11.859375 L 15.15625 -11.765625 C 13.125 -11.703125 11.613281 -11.332031 10.625 -10.65625 C 9.632812 -9.988281 9.140625 -8.96875 9.140625 -7.59375 C 9.140625 -5.625 10.269531 -4.640625 12.53125 -4.640625 C 14.144531 -4.640625 15.4375 -5.101562 16.40625 -6.03125 C 17.375 -6.96875 17.859375 -8.207031 17.859375 -9.75 Z M 17.859375 -11.859375 "/></g></g></g><g fill="#000000" fill-opacity="1"><g transform="translate(392.637746, 589.590561)"><g><path d="M 11.765625 0.453125 C 8.765625 0.453125 6.40625 -0.710938 4.6875 -3.046875 C 2.96875 -5.378906 2.109375 -8.613281 2.109375 -12.75 C 2.109375 -16.945312 2.976562 -20.21875 4.71875 -22.5625 C 6.46875 -24.90625 8.878906 -26.078125 11.953125 -26.078125 C 15.171875 -26.078125 17.628906 -24.828125 19.328125 -22.328125 L 19.546875 -22.328125 C 19.203125 -24.234375 19.03125 -25.929688 19.03125 -27.421875 L 19.03125 -35.625 L 26.03125 -35.625 L 26.03125 0 L 20.671875 0 L 19.328125 -3.3125 L 19.03125 -3.3125 C 17.4375 -0.800781 15.015625 0.453125 11.765625 0.453125 Z M 14.21875 -5.109375 C 16 -5.109375 17.304688 -5.625 18.140625 -6.65625 C 18.972656 -7.695312 19.425781 -9.460938 19.5 -11.953125 L 19.5 -12.703125 C 19.5 -15.453125 19.078125 -17.421875 18.234375 -18.609375 C 17.390625 -19.804688 16.015625 -20.40625 14.109375 -20.40625 C 12.546875 -20.40625 11.332031 -19.742188 10.46875 -18.421875 C 9.613281 -17.097656 9.1875 -15.175781 9.1875 -12.65625 C 9.1875 -10.144531 9.617188 -8.257812 10.484375 -7 C 11.359375 -5.738281 12.601562 -5.109375 14.21875 -5.109375 Z M 14.21875 -5.109375 "/></g></g></g><g fill="#000000" fill-opacity="1"><g transform="translate(422.304838, 589.590561)"><g><path d="M 9.234375 -12.84375 C 9.234375 -10.3125 9.644531 -8.394531 10.46875 -7.09375 C 11.300781 -5.800781 12.65625 -5.15625 14.53125 -5.15625 C 16.394531 -5.15625 17.734375 -5.796875 18.546875 -7.078125 C 19.367188 -8.367188 19.78125 -10.289062 19.78125 -12.84375 C 19.78125 -15.375 19.367188 -17.273438 18.546875 -18.546875 C 17.722656 -19.816406 16.375 -20.453125 14.5 -20.453125 C 12.632812 -20.453125 11.289062 -19.820312 10.46875 -18.5625 C 9.644531 -17.300781 9.234375 -15.394531 9.234375 -12.84375 Z M 26.921875 -12.84375 C 26.921875 -8.675781 25.820312 -5.414062 23.625 -3.0625 C 21.425781 -0.71875 18.367188 0.453125 14.453125 0.453125 C 11.992188 0.453125 9.820312 -0.0820312 7.9375 -1.15625 C 6.0625 -2.226562 4.617188 -3.769531 3.609375 -5.78125 C 2.609375 -7.800781 2.109375 -10.15625 2.109375 -12.84375 C 2.109375 -17.03125 3.195312 -20.28125 5.375 -22.59375 C 7.5625 -24.914062 10.628906 -26.078125 14.578125 -26.078125 C 17.035156 -26.078125 19.203125 -25.539062 21.078125 -24.46875 C 22.960938 -23.40625 24.40625 -21.875 25.40625 -19.875 C 26.414062 -17.875 26.921875 -15.53125 26.921875 -12.84375 Z M 26.921875 -12.84375 "/></g></g></g><g fill="#000000" fill-opacity="1"><g transform="translate(451.330974, 589.590561)"><g><path d="M 17.953125 -26.078125 C 18.898438 -26.078125 19.6875 -26.007812 20.3125 -25.875 L 19.78125 -19.328125 C 19.21875 -19.472656 18.53125 -19.546875 17.71875 -19.546875 C 15.488281 -19.546875 13.75 -18.972656 12.5 -17.828125 C 11.257812 -16.691406 10.640625 -15.09375 10.640625 -13.03125 L 10.640625 0 L 3.65625 0 L 3.65625 -25.59375 L 8.953125 -25.59375 L 9.984375 -21.296875 L 10.328125 -21.296875 C 11.117188 -22.734375 12.1875 -23.890625 13.53125 -24.765625 C 14.882812 -25.640625 16.359375 -26.078125 17.953125 -26.078125 Z M 17.953125 -26.078125 "/></g></g></g><g fill="#000000" fill-opacity="1"><g transform="translate(472.619883, 589.590561)"><g/></g></g><g fill="#000000" fill-opacity="1"><g transform="translate(484.798041, 589.590561)"><g><path d="M 17.71875 0.453125 C 14.707031 0.453125 12.347656 -0.632812 10.640625 -2.8125 L 10.28125 -2.8125 C 10.519531 -0.675781 10.640625 0.554688 10.640625 0.890625 L 10.640625 11.265625 L 3.65625 11.265625 L 3.65625 -25.59375 L 9.34375 -25.59375 L 10.328125 -22.28125 L 10.640625 -22.28125 C 12.273438 -24.8125 14.695312 -26.078125 17.90625 -26.078125 C 20.925781 -26.078125 23.289062 -24.910156 25 -22.578125 C 26.707031 -20.242188 27.5625 -17 27.5625 -12.84375 C 27.5625 -10.113281 27.160156 -7.738281 26.359375 -5.71875 C 25.554688 -3.707031 24.414062 -2.175781 22.9375 -1.125 C 21.457031 -0.0703125 19.71875 0.453125 17.71875 0.453125 Z M 15.65625 -20.484375 C 13.9375 -20.484375 12.675781 -19.953125 11.875 -18.890625 C 11.082031 -17.835938 10.671875 -16.085938 10.640625 -13.640625 L 10.640625 -12.890625 C 10.640625 -10.140625 11.046875 -8.171875 11.859375 -6.984375 C 12.679688 -5.796875 13.976562 -5.203125 15.75 -5.203125 C 18.882812 -5.203125 20.453125 -7.78125 20.453125 -12.9375 C 20.453125 -15.457031 20.066406 -17.34375 19.296875 -18.59375 C 18.523438 -19.851562 17.3125 -20.484375 15.65625 -20.484375 Z M 15.65625 -20.484375 "/></g></g></g><g fill="#000000" fill-opacity="1"><g transform="translate(514.465133, 589.590561)"><g><path d="M 19.921875 0 L 18.5625 -3.484375 L 18.390625 -3.484375 C 17.210938 -2.003906 16 -0.976562 14.75 -0.40625 C 13.507812 0.164062 11.890625 0.453125 9.890625 0.453125 C 7.429688 0.453125 5.492188 -0.242188 4.078125 -1.640625 C 2.671875 -3.046875 1.96875 -5.046875 1.96875 -7.640625 C 1.96875 -10.359375 2.914062 -12.363281 4.8125 -13.65625 C 6.71875 -14.945312 9.585938 -15.660156 13.421875 -15.796875 L 17.859375 -15.9375 L 17.859375 -17.0625 C 17.859375 -19.65625 16.53125 -20.953125 13.875 -20.953125 C 11.832031 -20.953125 9.425781 -20.332031 6.65625 -19.09375 L 4.34375 -23.8125 C 7.289062 -25.351562 10.5625 -26.125 14.15625 -26.125 C 17.582031 -26.125 20.210938 -25.375 22.046875 -23.875 C 23.878906 -22.382812 24.796875 -20.113281 24.796875 -17.0625 L 24.796875 0 Z M 17.859375 -11.859375 L 15.15625 -11.765625 C 13.125 -11.703125 11.613281 -11.332031 10.625 -10.65625 C 9.632812 -9.988281 9.140625 -8.96875 9.140625 -7.59375 C 9.140625 -5.625 10.269531 -4.640625 12.53125 -4.640625 C 14.144531 -4.640625 15.4375 -5.101562 16.40625 -6.03125 C 17.375 -6.96875 17.859375 -8.207031 17.859375 -9.75 Z M 17.859375 -11.859375 "/></g></g></g><g fill="#000000" fill-opacity="1"><g transform="translate(542.781627, 589.590561)"><g><path d="M 14.453125 -5.109375 C 15.671875 -5.109375 17.132812 -5.375 18.84375 -5.90625 L 18.84375 -0.703125 C 17.101562 0.0664062 14.96875 0.453125 12.4375 0.453125 C 9.644531 0.453125 7.609375 -0.25 6.328125 -1.65625 C 5.054688 -3.070312 4.421875 -5.191406 4.421875 -8.015625 L 4.421875 -20.359375 L 1.078125 -20.359375 L 1.078125 -23.3125 L 4.921875 -25.640625 L 6.9375 -31.046875 L 11.40625 -31.046875 L 11.40625 -25.59375 L 18.5625 -25.59375 L 18.5625 -20.359375 L 11.40625 -20.359375 L 11.40625 -8.015625 C 11.40625 -7.023438 11.679688 -6.289062 12.234375 -5.8125 C 12.796875 -5.34375 13.535156 -5.109375 14.453125 -5.109375 Z M 14.453125 -5.109375 "/></g></g></g><g fill="#000000" fill-opacity="1"><g transform="translate(563.131958, 589.590561)"><g><path d="M 17.953125 -26.078125 C 18.898438 -26.078125 19.6875 -26.007812 20.3125 -25.875 L 19.78125 -19.328125 C 19.21875 -19.472656 18.53125 -19.546875 17.71875 -19.546875 C 15.488281 -19.546875 13.75 -18.972656 12.5 -17.828125 C 11.257812 -16.691406 10.640625 -15.09375 10.640625 -13.03125 L 10.640625 0 L 3.65625 0 L 3.65625 -25.59375 L 8.953125 -25.59375 L 9.984375 -21.296875 L 10.328125 -21.296875 C 11.117188 -22.734375 12.1875 -23.890625 13.53125 -24.765625 C 14.882812 -25.640625 16.359375 -26.078125 17.953125 -26.078125 Z M 17.953125 -26.078125 "/></g></g></g><g fill="#000000" fill-opacity="1"><g transform="translate(584.420819, 589.590561)"><g><path d="M 3.359375 -32.21875 C 3.359375 -34.488281 4.628906 -35.625 7.171875 -35.625 C 9.703125 -35.625 10.96875 -34.488281 10.96875 -32.21875 C 10.96875 -31.132812 10.648438 -30.289062 10.015625 -29.6875 C 9.378906 -29.082031 8.429688 -28.78125 7.171875 -28.78125 C 4.628906 -28.78125 3.359375 -29.925781 3.359375 -32.21875 Z M 10.640625 0 L 3.65625 0 L 3.65625 -25.59375 L 10.640625 -25.59375 Z M 10.640625 0 "/></g></g></g><g fill="#000000" fill-opacity="1"><g transform="translate(598.727854, 589.590561)"><g><path d="M 26.578125 0 L 19.59375 0 L 19.59375 -14.953125 C 19.59375 -16.796875 19.285156 -18.175781 18.671875 -19.09375 C 18.054688 -20.019531 17.082031 -20.484375 15.75 -20.484375 C 13.96875 -20.484375 12.671875 -19.828125 11.859375 -18.515625 C 11.046875 -17.203125 10.640625 -15.046875 10.640625 -12.046875 L 10.640625 0 L 3.65625 0 L 3.65625 -25.59375 L 9 -25.59375 L 9.9375 -22.328125 L 10.328125 -22.328125 C 11.015625 -23.503906 12.003906 -24.421875 13.296875 -25.078125 C 14.597656 -25.742188 16.085938 -26.078125 17.765625 -26.078125 C 21.597656 -26.078125 24.191406 -24.828125 25.546875 -22.328125 L 26.171875 -22.328125 C 26.859375 -23.515625 27.867188 -24.4375 29.203125 -25.09375 C 30.535156 -25.75 32.039062 -26.078125 33.71875 -26.078125 C 36.625 -26.078125 38.820312 -25.332031 40.3125 -23.84375 C 41.800781 -22.351562 42.546875 -19.96875 42.546875 -16.6875 L 42.546875 0 L 35.53125 0 L 35.53125 -14.953125 C 35.53125 -16.796875 35.222656 -18.175781 34.609375 -19.09375 C 33.992188 -20.019531 33.019531 -20.484375 31.6875 -20.484375 C 29.976562 -20.484375 28.695312 -19.875 27.84375 -18.65625 C 27 -17.4375 26.578125 -15.5 26.578125 -12.84375 Z M 26.578125 0 "/></g></g></g><g fill="#000000" fill-opacity="1"><g transform="translate(644.762219, 589.590561)"><g><path d="M 9.234375 -12.84375 C 9.234375 -10.3125 9.644531 -8.394531 10.46875 -7.09375 C 11.300781 -5.800781 12.65625 -5.15625 14.53125 -5.15625 C 16.394531 -5.15625 17.734375 -5.796875 18.546875 -7.078125 C 19.367188 -8.367188 19.78125 -10.289062 19.78125 -12.84375 C 19.78125 -15.375 19.367188 -17.273438 18.546875 -18.546875 C 17.722656 -19.816406 16.375 -20.453125 14.5 -20.453125 C 12.632812 -20.453125 11.289062 -19.820312 10.46875 -18.5625 C 9.644531 -17.300781 9.234375 -15.394531 9.234375 -12.84375 Z M 26.921875 -12.84375 C 26.921875 -8.675781 25.820312 -5.414062 23.625 -3.0625 C 21.425781 -0.71875 18.367188 0.453125 14.453125 0.453125 C 11.992188 0.453125 9.820312 -0.0820312 7.9375 -1.15625 C 6.0625 -2.226562 4.617188 -3.769531 3.609375 -5.78125 C 2.609375 -7.800781 2.109375 -10.15625 2.109375 -12.84375 C 2.109375 -17.03125 3.195312 -20.28125 5.375 -22.59375 C 7.5625 -24.914062 10.628906 -26.078125 14.578125 -26.078125 C 17.035156 -26.078125 19.203125 -25.539062 21.078125 -24.46875 C 22.960938 -23.40625 24.40625 -21.875 25.40625 -19.875 C 26.414062 -17.875 26.921875 -15.53125 26.921875 -12.84375 Z M 26.921875 -12.84375 "/></g></g></g><g fill="#000000" fill-opacity="1"><g transform="translate(673.788355, 589.590561)"><g><path d="M 27.296875 0 L 20.3125 0 L 20.3125 -14.953125 C 20.3125 -16.796875 19.984375 -18.175781 19.328125 -19.09375 C 18.671875 -20.019531 17.625 -20.484375 16.1875 -20.484375 C 14.226562 -20.484375 12.8125 -19.832031 11.9375 -18.53125 C 11.070312 -17.226562 10.640625 -15.066406 10.640625 -12.046875 L 10.640625 0 L 3.65625 0 L 3.65625 -25.59375 L 9 -25.59375 L 9.9375 -22.328125 L 10.328125 -22.328125 C 11.109375 -23.554688 12.179688 -24.488281 13.546875 -25.125 C 14.910156 -25.757812 16.460938 -26.078125 18.203125 -26.078125 C 21.179688 -26.078125 23.441406 -25.269531 24.984375 -23.65625 C 26.523438 -22.050781 27.296875 -19.726562 27.296875 -16.6875 Z M 27.296875 0 "/></g></g></g><g fill="#000000" fill-opacity="1"><g transform="translate(704.599986, 589.590561)"><g><path d="M 3.359375 -32.21875 C 3.359375 -34.488281 4.628906 -35.625 7.171875 -35.625 C 9.703125 -35.625 10.96875 -34.488281 10.96875 -32.21875 C 10.96875 -31.132812 10.648438 -30.289062 10.015625 -29.6875 C 9.378906 -29.082031 8.429688 -28.78125 7.171875 -28.78125 C 4.628906 -28.78125 3.359375 -29.925781 3.359375 -32.21875 Z M 10.640625 0 L 3.65625 0 L 3.65625 -25.59375 L 10.640625 -25.59375 Z M 10.640625 0 "/></g></g></g><g fill="#000000" fill-opacity="1"><g transform="translate(718.907021, 589.590561)"><g><path d="M 19.921875 0 L 18.5625 -3.484375 L 18.390625 -3.484375 C 17.210938 -2.003906 16 -0.976562 14.75 -0.40625 C 13.507812 0.164062 11.890625 0.453125 9.890625 0.453125 C 7.429688 0.453125 5.492188 -0.242188 4.078125 -1.640625 C 2.671875 -3.046875 1.96875 -5.046875 1.96875 -7.640625 C 1.96875 -10.359375 2.914062 -12.363281 4.8125 -13.65625 C 6.71875 -14.945312 9.585938 -15.660156 13.421875 -15.796875 L 17.859375 -15.9375 L 17.859375 -17.0625 C 17.859375 -19.65625 16.53125 -20.953125 13.875 -20.953125 C 11.832031 -20.953125 9.425781 -20.332031 6.65625 -19.09375 L 4.34375 -23.8125 C 7.289062 -25.351562 10.5625 -26.125 14.15625 -26.125 C 17.582031 -26.125 20.210938 -25.375 22.046875 -23.875 C 23.878906 -22.382812 24.796875 -20.113281 24.796875 -17.0625 L 24.796875 0 Z M 17.859375 -11.859375 L 15.15625 -11.765625 C 13.125 -11.703125 11.613281 -11.332031 10.625 -10.65625 C 9.632812 -9.988281 9.140625 -8.96875 9.140625 -7.59375 C 9.140625 -5.625 10.269531 -4.640625 12.53125 -4.640625 C 14.144531 -4.640625 15.4375 -5.101562 16.40625 -6.03125 C 17.375 -6.96875 17.859375 -8.207031 17.859375 -9.75 Z M 17.859375 -11.859375 "/></g></g></g><g fill="#000000" fill-opacity="1"><g transform="translate(747.223515, 589.590561)"><g><path d="M 10.640625 0 L 3.65625 0 L 3.65625 -35.625 L 10.640625 -35.625 Z M 10.640625 0 "/></g></g></g></svg>