<svg xmlns="http://www.w3.org/2000/svg" xmlns:xlink="http://www.w3.org/1999/xlink" width="1080" zoomAndPan="magnify" viewBox="0 0 810 809.999993" height="1080" preserveAspectRatio="xMidYMid meet" version="1.0"><defs><g/></defs><g fill="#000000" fill-opacity="1"><g transform="translate(37.199837, 688.024915)"><g><path d="M 103.3125 -233.9375 L 110.4375 -233.9375 C 117.957031 -233.9375 123.003906 -235.421875 125.578125 -238.390625 C 128.148438 -241.359375 129.4375 -249.570312 129.4375 -263.03125 L 129.4375 -388.921875 C 129.4375 -403.171875 128.148438 -411.78125 125.578125 -414.75 C 123.003906 -417.71875 117.5625 -419.203125 109.25 -419.203125 L 103.3125 -419.203125 Z M 121.71875 -482.140625 C 158.925781 -482.140625 183.269531 -476.398438 194.75 -464.921875 C 205.832031 -453.835938 211.375 -426.921875 211.375 -384.171875 L 211.375 -268.96875 C 211.375 -225.820312 205.632812 -198.507812 194.15625 -187.03125 C 183.070312 -175.945312 159.125 -170.40625 122.3125 -170.40625 L 103.3125 -170.40625 L 103.3125 0 L 20.78125 0 L 20.78125 -482.140625 Z M 121.71875 -482.140625 "/></g></g></g><g fill="#000000" fill-opacity="1"><g transform="translate(262.828265, 688.024915)"><g><path d="M 116.96875 -482.140625 L 147.25 -251.15625 L 151.40625 -251.15625 L 181.6875 -482.140625 L 277.875 -482.140625 L 277.875 0 L 204.25 0 L 207.21875 -285 L 202.46875 -285 L 171 0 L 127.65625 0 L 96.1875 -285 L 91.4375 -285 L 94.40625 0 L 20.78125 0 L 20.78125 -482.140625 Z M 116.96875 -482.140625 "/></g></g></g><g fill="#000000" fill-opacity="1"><g transform="translate(560.895275, 688.024915)"><g><path d="M 207.21875 -315.890625 L 125.28125 -315.890625 L 125.28125 -400.796875 C 125.28125 -414.253906 120.726562 -420.984375 111.625 -420.984375 C 107.269531 -420.984375 104.203125 -419.5 102.421875 -416.53125 C 100.640625 -413.5625 99.75 -408.316406 99.75 -400.796875 L 99.75 -325.984375 C 99.75 -317.273438 101.035156 -311.039062 103.609375 -307.28125 C 106.179688 -303.519531 111.03125 -299.460938 118.15625 -295.109375 L 168.625 -266 C 182.476562 -258.082031 192.375 -248.78125 198.3125 -238.09375 C 204.25 -227.40625 207.21875 -212.363281 207.21875 -192.96875 L 207.21875 -92.625 C 207.21875 -49.082031 201.675781 -22.363281 190.59375 -12.46875 C 179.113281 -2.175781 152.789062 2.96875 111.625 2.96875 C 70.851562 2.96875 44.925781 -2.375 33.84375 -13.0625 C 22.363281 -24.539062 16.625 -51.0625 16.625 -92.625 L 16.625 -198.90625 L 99.75 -198.90625 L 99.75 -81.34375 C 99.75 -67.488281 104.300781 -60.5625 113.40625 -60.5625 C 121.320312 -60.5625 125.28125 -67.488281 125.28125 -81.34375 L 125.28125 -183.46875 C 125.28125 -192.175781 124.09375 -198.3125 121.71875 -201.875 C 119.34375 -205.4375 114.394531 -209.394531 106.875 -213.75 L 54.03125 -244.625 C 40.570312 -252.539062 30.972656 -262.039062 25.234375 -273.125 C 19.492188 -284.207031 16.625 -299.847656 16.625 -320.046875 L 16.625 -388.921875 C 16.625 -430.085938 22.363281 -456.410156 33.84375 -467.890625 C 45.320312 -479.367188 71.445312 -485.109375 112.21875 -485.109375 C 152.59375 -485.109375 178.519531 -479.765625 190 -469.078125 C 201.476562 -458.390625 207.21875 -431.671875 207.21875 -388.921875 Z M 207.21875 -315.890625 "/></g></g></g></svg>